<svg width="173" height="123" viewBox="0 0 173 123" fill="none" xmlns="http://www.w3.org/2000/svg">
<path d="M123.58 97.1918H61.712C61.0994 97.1918 60.5983 96.6907 60.5983 96.0781C60.5983 95.4618 61.0994 94.9644 61.712 94.9644H123.58C127.207 94.9644 130.634 93.5388 133.221 90.9549C135.809 88.3673 137.231 84.9408 137.231 81.3137V36.4339C137.231 35.8177 137.732 35.3202 138.344 35.3202C138.961 35.3202 139.458 35.8177 139.458 36.4339V81.3137C139.458 83.4484 139.035 85.5236 138.207 87.4797C137.401 89.3693 136.254 91.0696 134.796 92.529C133.337 93.988 131.636 95.1351 129.747 95.937C127.79 96.7686 125.715 97.1918 123.58 97.1918ZM54.2871 97.1918C53.6745 97.1918 53.1734 96.6907 53.1734 96.0781C53.1734 95.4618 53.6745 94.9644 54.2871 94.9644C54.9034 94.9644 55.4008 95.4618 55.4008 96.0781C55.4008 96.6907 54.9034 97.1918 54.2871 97.1918ZM46.8622 97.1918H21.0459C20.7526 97.1918 20.463 97.073 20.2551 96.8651C20.0509 96.6572 19.9321 96.3714 19.9321 96.0781V2.50961C19.9358 1.1323 21.057 0.00742489 22.4343 0H123.346C125.514 0.00371245 127.619 0.430644 129.605 1.27337C131.525 2.08639 133.247 3.2521 134.728 4.73337C136.209 6.21463 137.375 7.94092 138.188 9.85655C139.031 11.8427 139.458 13.9477 139.458 16.1157V21.5842C139.458 22.1967 138.96 22.6979 138.344 22.6979C137.732 22.6979 137.23 22.1967 137.23 21.5842V16.1157C137.23 12.4256 135.783 8.94328 133.154 6.30745C130.522 3.67904 127.036 2.23118 123.346 2.22747H22.4343C22.2895 2.23118 22.1596 2.36483 22.1596 2.50961L22.1559 94.9644H46.8622C47.4785 94.9644 47.9759 95.4618 47.9759 96.0781C47.9759 96.6907 47.4785 97.1918 46.8622 97.1918ZM138.344 30.1228C137.732 30.1228 137.23 29.6216 137.23 29.0091C137.23 28.3928 137.732 27.8953 138.344 27.8953C138.96 27.8953 139.458 28.3928 139.458 29.0091C139.458 29.6216 138.961 30.1228 138.344 30.1228Z" fill="#0B0029"/>
<path d="M127.526 87.4133H50.712C50.4187 87.4133 50.1291 87.2945 49.9212 87.0866C49.7171 86.8783 49.5983 86.5928 49.5983 86.2995V38.5278C49.5983 37.9115 50.0957 37.414 50.712 37.414C51.3246 37.414 51.822 37.9115 51.822 38.5278V85.1858H126.412V80.9536C126.412 80.3377 126.914 79.8399 127.526 79.8399C128.139 79.8399 128.64 80.3377 128.64 80.9536V86.2995C128.64 86.5965 128.525 86.875 128.313 87.0866C128.102 87.2982 127.823 87.4133 127.526 87.4133ZM127.526 74.6421C126.914 74.6421 126.412 74.1409 126.412 73.5283C126.412 72.9124 126.914 72.4146 127.526 72.4146C128.139 72.4146 128.64 72.9124 128.64 73.5283C128.64 74.1413 128.139 74.6421 127.526 74.6421ZM127.526 67.2176C126.914 67.2176 126.412 66.7164 126.412 66.1038V14.0999H51.822V23.6706C51.8257 23.6706 51.8257 23.6743 51.8257 23.6743C51.8257 24.2905 51.3246 24.7917 50.712 24.7917C50.0957 24.7917 49.5983 24.2905 49.5983 23.6743V12.9861C49.5983 12.6929 49.7171 12.4033 49.9212 12.1954C50.1291 11.9912 50.4187 11.8724 50.712 11.8724H127.526C127.82 11.8724 128.105 11.9912 128.313 12.1954C128.521 12.4033 128.64 12.6929 128.64 12.9861V66.1038C128.64 66.7164 128.143 67.2176 127.526 67.2176ZM50.712 32.2129C50.0957 32.2129 49.5983 31.7154 49.5983 31.1029C49.5983 30.4866 50.0957 29.9891 50.712 29.9891C51.3246 29.9891 51.822 30.4866 51.822 31.1029C51.822 31.7154 51.3246 32.2129 50.712 32.2129Z" fill="#0B0029"/>
<path d="M43.5841 30.1599H25.7718C25.4785 30.1599 25.1927 30.0411 24.9848 29.8332C24.7769 29.6253 24.6581 29.3395 24.6581 29.0462V19.2676C24.6581 18.9743 24.7769 18.6885 24.9848 18.4806C25.1927 18.2727 25.4785 18.1539 25.7718 18.1539H43.5841C43.8774 18.1539 44.1633 18.2727 44.3712 18.4806C44.5791 18.6848 44.6979 18.9743 44.6979 19.2676V29.0462C44.6979 29.3395 44.5791 29.6253 44.3712 29.8332C44.1633 30.0411 43.8774 30.1599 43.5841 30.1599ZM26.8855 27.9325H42.4704V20.3814H26.8855V27.9325Z" fill="#0B0029"/>
<path d="M43.5841 39.9311H25.7718C25.4785 39.9311 25.1927 39.8123 24.9848 39.6081C24.7769 39.4002 24.6581 39.1106 24.6581 38.8173V29.0462C24.6581 28.7529 24.7769 28.4633 24.9848 28.2591C25.1927 28.0512 25.4785 27.9324 25.7718 27.9324H43.5841C43.8774 27.9324 44.1633 28.0512 44.3712 28.2591C44.5791 28.4633 44.6979 28.7529 44.6979 29.0462V38.8173C44.6979 39.1106 44.5791 39.4002 44.3712 39.6044C44.1633 39.8123 43.8774 39.9311 43.5841 39.9311ZM26.8855 30.1599V37.7036H42.4704V30.1599H26.8855Z" fill="#0B0029"/>
<path d="M43.5841 49.7097H25.7718C25.4785 49.7097 25.1927 49.5909 24.9848 49.383C24.7769 49.1751 24.6581 48.8892 24.6581 48.596V38.8173C24.6581 38.5241 24.7769 38.2382 24.9848 38.0303C25.1927 37.8224 25.4785 37.7036 25.7718 37.7036H43.5841C43.8737 37.7036 44.1633 37.8224 44.3712 38.0303C44.5791 38.2382 44.6979 38.5241 44.6979 38.8173V48.596C44.6979 48.8892 44.5791 49.1751 44.3712 49.383C44.1633 49.5909 43.8774 49.7097 43.5841 49.7097ZM26.8855 47.4822H42.4704V39.9311H26.8855V47.4822Z" fill="#0B0029"/>
<path d="M6.8903 82.5648C6.43738 82.5648 6.03273 82.2938 5.86195 81.8776C5.62807 81.3096 5.89908 80.6562 6.46708 80.4223C6.60073 80.3667 6.74552 80.3373 6.8903 80.3373C7.34322 80.3373 7.74788 80.608 7.91865 81.0241C8.15625 81.5921 7.88524 82.2455 7.31723 82.4794C7.17987 82.5388 7.0388 82.5648 6.8903 82.5648ZM9.72661 81.8075C9.57811 81.8075 9.43704 81.7778 9.29968 81.7221C9.02496 81.6107 8.80964 81.3954 8.69826 81.1207C8.58318 80.8459 8.58318 80.5415 8.69826 80.2668L14.0739 67.251V17.8086H2.22747V67.251L5.08605 74.1632C5.14174 74.3005 5.17144 74.4494 5.17144 74.5975C5.16773 75.0471 4.89672 75.4477 4.48092 75.6184C4.28416 75.7005 4.06513 75.7224 3.85352 75.6856C3.48228 75.6151 3.17043 75.3664 3.02564 75.0133L0.0853861 67.8966C0.0296994 67.7592 0 67.6181 0 67.47V16.6949C0 16.4016 0.118798 16.112 0.326695 15.9078C0.534592 15.6999 0.820451 15.5811 1.11373 15.5811H15.1913C15.4809 15.5811 15.7705 15.6999 15.9784 15.9078C16.1826 16.112 16.3014 16.4016 16.3014 16.6949V67.47C16.3014 67.6181 16.2754 67.7592 16.2197 67.8966L10.755 81.1203C10.5842 81.5365 10.1795 81.8075 9.72661 81.8075Z" fill="#0B0029"/>
<path d="M15.1876 17.8086H1.11373C0.820451 17.8086 0.534592 17.6898 0.326695 17.4819C0.118798 17.274 0 16.9882 0 16.6949V12.9564C0 12.6632 0.118798 12.3773 0.326695 12.1694C0.534592 11.9615 0.824163 11.8427 1.11373 11.8427H15.1876C15.4846 11.8427 15.7705 11.9615 15.9784 12.1694C16.1826 12.3773 16.3014 12.6632 16.3014 12.9564V16.6949C16.3014 16.9882 16.1826 17.274 15.9747 17.4819C15.7705 17.6898 15.4846 17.8086 15.1876 17.8086ZM2.22747 15.5811H14.0739V14.0702H2.22747V15.5811Z" fill="#0B0029"/>
<path d="M15.1876 14.0702H1.11373C0.820451 14.0702 0.534592 13.9514 0.326695 13.7435C0.118798 13.5356 0 13.2497 0 12.9564V8.37155C0.00371245 5.23453 2.56159 2.67665 5.6986 2.67294H10.6065C13.7435 2.68037 16.2976 5.23453 16.3014 8.37155V12.9564C16.3014 13.2497 16.1826 13.5393 15.9784 13.7435C15.7705 13.9514 15.4809 14.0702 15.1876 14.0702ZM2.22747 11.8427H14.0776V8.37155C14.0739 6.46335 12.5147 4.90412 10.6065 4.90041H5.6986C3.78669 4.90412 2.23118 6.46335 2.22747 8.37155V11.8427Z" fill="#0B0029"/>
<path d="M15.1876 68.4946H1.11373C0.50118 68.4946 0 67.9934 0 67.3809C0 66.7646 0.50118 66.2672 1.11373 66.2672H15.1876C15.8039 66.2672 16.3014 66.7646 16.3014 67.3809C16.3014 67.9934 15.8039 68.4946 15.1876 68.4946Z" fill="#0B0029"/>
<path d="M10.1795 68.4946C9.56696 68.4946 9.06578 67.9935 9.06578 67.3809V16.6949C9.06578 16.0786 9.56696 15.5811 10.1795 15.5811C10.7958 15.5811 11.2932 16.0786 11.2932 16.6949V67.3809C11.2932 67.9935 10.7958 68.4946 10.1795 68.4946Z" fill="#0B0029"/>
<path d="M5.86194 68.4946C5.24939 68.4946 4.74821 67.9935 4.74821 67.3809V16.6949C4.74821 16.0786 5.24939 15.5811 5.86194 15.5811C6.4745 15.5811 6.97568 16.0786 6.97568 16.6949V67.3809C6.97568 67.9935 6.4745 68.4946 5.86194 68.4946Z" fill="#0B0029"/>
<path d="M111.306 50.7566H92.2428C91.6265 50.7566 91.129 50.2554 91.129 49.6428C91.129 49.0266 91.6265 48.5291 92.2428 48.5291H111.306C111.922 48.5291 112.42 49.0266 112.42 49.6428C112.42 50.2554 111.922 50.7566 111.306 50.7566Z" fill="#0B0029"/>
<path d="M85.9951 50.7566H66.9317C66.3154 50.7566 65.818 50.2554 65.818 49.6428C65.818 49.0266 66.3154 48.5291 66.9317 48.5291H85.9951C86.6077 48.5291 87.1089 49.0266 87.1089 49.6428C87.1089 50.2554 86.6077 50.7566 85.9951 50.7566Z" fill="#0B0029"/>
<path d="M89.1243 72.9418C88.5084 72.9418 88.0106 72.4443 88.0106 71.8321V52.765C88.0106 52.1525 88.5084 51.6513 89.1243 51.6513C89.7369 51.6513 90.2381 52.1525 90.2381 52.765V71.8321C90.2381 72.4447 89.7372 72.9418 89.1243 72.9418Z" fill="#0B0029"/>
<path d="M89.1243 47.6344C88.5084 47.6344 88.0106 47.1332 88.0106 46.5206V27.4535C88.0106 26.841 88.5084 26.3398 89.1243 26.3398C89.7369 26.3398 90.2381 26.841 90.2381 27.4535V46.5206C90.2381 47.1332 89.7372 47.6344 89.1243 47.6344Z" fill="#0B0029"/>
<path d="M92.2394 53.8787H85.9951C85.7018 53.8787 85.416 53.7599 85.2081 53.552C85.0002 53.3441 84.8814 53.0583 84.8814 52.765V46.5207C84.8814 46.2274 85.0002 45.9378 85.2081 45.7299C85.416 45.5257 85.7018 45.4069 85.9951 45.4069H92.2394C92.5327 45.4069 92.8223 45.5257 93.0302 45.7299C93.2344 45.9378 93.3532 46.2274 93.3532 46.5207V52.765C93.3532 53.062 93.2377 53.3441 93.0302 53.552C92.8186 53.7637 92.5401 53.8787 92.2394 53.8787ZM87.1088 51.6513H91.1257V47.6344H87.1088V51.6513Z" fill="#0B0029"/>
<path d="M117.554 53.8787H111.306C111.013 53.8787 110.727 53.7599 110.52 53.552C110.311 53.3441 110.192 53.0583 110.192 52.765V46.5207C110.192 46.2237 110.311 45.9378 110.52 45.7299C110.727 45.5257 111.013 45.4069 111.306 45.4069H117.554C117.844 45.4069 118.134 45.5257 118.341 45.7299C118.55 45.9378 118.668 46.2274 118.668 46.5207V52.765C118.668 53.062 118.55 53.3404 118.341 53.552C118.13 53.7637 117.848 53.8787 117.554 53.8787ZM112.42 51.6513H116.44V47.6344H112.42V51.6513Z" fill="#0B0029"/>
<path d="M92.2432 79.1898H85.9951C85.7018 79.1898 85.416 79.0714 85.2081 78.8631C85.0002 78.6552 84.8814 78.3693 84.8814 78.0761V71.828C84.8814 71.5347 85.0002 71.2489 85.2081 71.0413C85.416 70.8331 85.7018 70.7143 85.9951 70.7143H92.2432C92.5364 70.7143 92.8227 70.8368 93.0302 71.0413C93.2344 71.2492 93.3532 71.5388 93.3532 71.828V78.0761C93.3532 78.3734 93.2377 78.6519 93.0302 78.8631C92.8186 79.0751 92.5402 79.1898 92.2432 79.1898ZM87.1088 76.9623H91.1257V72.9418H87.1088V76.9623Z" fill="#0B0029"/>
<path d="M66.9317 53.8787H60.6836C60.3904 53.8787 60.1045 53.7599 59.8966 53.552C59.6887 53.3441 59.5699 53.0583 59.5699 52.765V46.5207C59.5699 46.2274 59.6887 45.9378 59.8966 45.7299C60.1045 45.5257 60.3904 45.4069 60.6836 45.4069H66.9317C67.2213 45.4069 67.5108 45.5257 67.7187 45.7299C67.9266 45.9378 68.0454 46.2274 68.0454 46.5207V52.765C68.0454 53.0583 67.9266 53.3441 67.7187 53.552C67.5108 53.7599 67.2213 53.8787 66.9317 53.8787ZM61.7974 51.6513H65.8142V47.6344H61.7974V51.6513Z" fill="#0B0029"/>
<path d="M92.2394 28.5673H85.9951C85.7018 28.5673 85.416 28.4485 85.2081 28.2406C85.0002 28.0327 84.8814 27.7468 84.8814 27.4535V21.2129C84.8814 20.9196 85.0002 20.6301 85.2081 20.4259C85.416 20.218 85.7018 20.0992 85.9951 20.0992H92.2394C92.5327 20.0992 92.8223 20.218 93.0302 20.4259C93.2344 20.6301 93.3532 20.9196 93.3532 21.2129V27.4535C93.3532 27.7505 93.2377 28.0327 93.0302 28.2406C92.8186 28.4522 92.5401 28.5673 92.2394 28.5673ZM87.1088 26.3398H91.1257V22.3267H87.1088V26.3398Z" fill="#0B0029"/>
<path d="M159.148 108.418C151.508 108.415 145.29 102.2 145.286 94.5634V79.3758C145.29 71.7397 151.508 65.5247 159.148 65.5209C166.782 65.5247 172.996 71.7393 173 79.3758V94.5634C172.996 102.2 166.782 108.418 159.148 108.418ZM159.148 67.7484C156.056 67.7484 153.138 68.9624 150.933 71.1635C148.728 73.3687 147.514 76.283 147.514 79.3754V94.563C147.514 97.6555 148.728 100.573 150.933 102.775C153.138 104.98 156.056 106.194 159.148 106.194C162.237 106.194 165.151 104.98 167.357 102.775C169.558 100.573 170.772 97.6555 170.772 94.563V79.3754C170.772 76.283 169.558 73.3687 167.357 71.1635C165.156 68.9624 162.238 67.7484 159.148 67.7484Z" fill="#0B0029"/>
<path d="M159.148 108.422C158.533 108.422 158.035 107.921 158.035 107.308V86.9715C158.035 86.3593 158.533 85.8577 159.148 85.8577C159.761 85.8577 160.262 86.3593 160.262 86.9715V107.308C160.262 107.921 159.761 108.422 159.148 108.422Z" fill="#0B0029"/>
<path d="M171.886 81.8H146.4C145.788 81.8 145.287 81.2989 145.287 80.6863C145.287 80.07 145.788 79.5726 146.4 79.5726H171.886C172.498 79.5726 173 80.07 173 80.6863C173 81.2989 172.498 81.8 171.886 81.8Z" fill="#0B0029"/>
<path d="M161.503 81.8H156.791C156.498 81.8 156.212 81.6812 156.004 81.4733C155.796 81.2654 155.678 80.9796 155.678 80.6863V76.5803C155.681 74.6718 157.233 73.1166 159.138 73.1125H159.148C161.053 73.1166 162.608 74.6718 162.616 76.5803V80.6863C162.616 80.9833 162.501 81.2617 162.289 81.4733C162.078 81.6849 161.799 81.8 161.503 81.8ZM157.905 79.5726H160.389V76.5803C160.385 75.908 159.817 75.34 159.148 75.34H159.138C158.473 75.34 157.908 75.908 157.905 76.5803V79.5726Z" fill="#0B0029"/>
<path d="M34.6817 70.1207C30.6277 70.1207 27.331 66.8277 27.331 62.7812C27.331 58.7272 30.6314 55.4342 34.6817 55.4342C38.7282 55.4342 42.0212 58.7309 42.0249 62.7812C42.0212 66.8277 38.7282 70.1207 34.6817 70.1207ZM34.6817 57.6617C31.8602 57.6654 29.5622 59.9634 29.5585 62.7812C29.5622 65.5952 31.8602 67.8895 34.6817 67.8932C37.4957 67.8895 39.79 65.5952 39.7974 62.7812C39.79 59.9634 37.4957 57.6654 34.6817 57.6617Z" fill="#0B0029"/>
<path d="M34.6817 85.1895C31.9382 85.1858 29.7033 82.9546 29.7033 80.2185C29.7033 77.4747 31.9382 75.2439 34.6817 75.2439C37.4215 75.2439 39.6489 77.475 39.6489 80.2185C39.6489 82.9583 37.4215 85.1895 34.6817 85.1895ZM34.6817 77.4713C33.167 77.4751 31.9345 78.7076 31.9308 80.2185C31.9345 81.7295 33.167 82.962 34.6817 82.962C36.1889 82.962 37.4215 81.7299 37.4215 80.2185C37.4215 78.7072 36.1889 77.4747 34.6817 77.4713Z" fill="#0B0029"/>
<path d="M123.216 122.121H14.2521C13.9588 122.121 13.6729 122.002 13.465 121.794C13.2571 121.586 13.1383 121.3 13.1383 121.007V101.918C13.1383 101.625 13.2571 101.338 13.465 101.131C13.6729 100.922 13.9588 100.804 14.2521 100.804H123.216C123.509 100.804 123.799 100.922 124.007 101.131C124.211 101.339 124.33 101.628 124.33 101.918V104.268C124.33 104.271 124.33 104.271 124.33 104.275C124.33 104.888 123.832 105.389 123.216 105.389C122.604 105.389 122.102 104.888 122.102 104.275V103.032H15.3658V119.893H122.102V119.125C122.102 118.512 122.604 118.011 123.216 118.011C123.832 118.011 124.33 118.512 124.33 119.125V121.007C124.33 121.304 124.215 121.586 124.007 121.794C123.795 122.006 123.517 122.121 123.216 122.121ZM123.216 112.814C122.604 112.814 122.102 112.313 122.102 111.7C122.102 111.084 122.604 110.586 123.216 110.586C123.832 110.586 124.329 111.084 124.329 111.7C124.329 112.313 123.832 112.814 123.216 112.814Z" fill="#0B0029"/>
<path d="M21.6992 122.121C21.0867 122.121 20.5855 121.619 20.5855 121.007V112.865C20.5855 112.253 21.0867 111.752 21.6992 111.752C22.3118 111.752 22.813 112.253 22.813 112.865V121.007C22.813 121.619 22.3118 122.121 21.6992 122.121Z" fill="#0B0029"/>
<path d="M28.1106 122.121C27.4944 122.121 26.9932 121.619 26.9932 121.007V109.309C26.9932 108.697 27.4944 108.195 28.1106 108.195C28.7232 108.195 29.2207 108.697 29.2207 109.309V121.007C29.2207 121.619 28.7232 122.121 28.1106 122.121Z" fill="#0B0029"/>
<path d="M34.2919 122.121C33.6756 122.121 33.1781 121.619 33.1781 121.007V112.865C33.1781 112.253 33.6756 111.752 34.2919 111.752C34.9044 111.752 35.4056 112.253 35.4056 112.865V121.007C35.4056 121.619 34.9044 122.121 34.2919 122.121Z" fill="#0B0029"/>
<path d="M40.6996 122.121C40.087 122.121 39.5858 121.619 39.5858 121.007V109.309C39.5858 108.697 40.087 108.195 40.6996 108.195C41.3158 108.195 41.8133 108.697 41.8133 109.309V121.007C41.8133 121.619 41.3158 122.121 40.6996 122.121Z" fill="#0B0029"/>
<path d="M46.8733 122.121C46.2608 122.121 45.7596 121.619 45.7596 121.007V112.865C45.7596 112.253 46.2608 111.752 46.8733 111.752C47.4896 111.752 47.9871 112.253 47.9871 112.865V121.007C47.9871 121.619 47.4896 122.121 46.8733 122.121Z" fill="#0B0029"/>
<path d="M53.2922 122.121C52.6796 122.121 52.1784 121.619 52.1784 121.007V109.309C52.1784 108.697 52.6796 108.195 53.2922 108.195C53.9084 108.195 54.4059 108.697 54.4059 109.309V121.007C54.4059 121.619 53.9084 122.121 53.2922 122.121Z" fill="#0B0029"/>
<path d="M59.466 122.121C58.8534 122.121 58.3522 121.619 58.3522 121.007V112.865C58.3522 112.253 58.8534 111.752 59.466 111.752C60.0785 111.752 60.5797 112.253 60.5797 112.865V121.007C60.5797 121.619 60.0785 122.121 59.466 122.121Z" fill="#0B0029"/>
<path d="M65.8848 122.121C65.2722 122.121 64.7711 121.619 64.7711 121.007V109.309C64.7711 108.697 65.2722 108.195 65.8848 108.195C66.5011 108.195 66.9985 108.697 66.9985 109.309V121.007C66.9985 121.619 66.5011 122.121 65.8848 122.121Z" fill="#0B0029"/>
<path d="M72.0586 122.121C71.4423 122.121 70.9449 121.619 70.9449 121.007V112.865C70.9449 112.253 71.4423 111.752 72.0586 111.752C72.6712 111.752 73.1723 112.253 73.1723 112.865V121.007C73.1723 121.619 72.6712 122.121 72.0586 122.121Z" fill="#0B0029"/>
<path d="M78.4774 122.121C77.8611 122.121 77.3636 121.619 77.3636 121.007V109.309C77.3636 108.697 77.8611 108.195 78.4774 108.195C79.0899 108.195 79.5911 108.697 79.5911 109.309V121.007C79.5911 121.619 79.0899 122.121 78.4774 122.121Z" fill="#0B0029"/>
<path d="M84.6512 122.121C84.0349 122.121 83.5375 121.619 83.5375 121.007V112.865C83.5375 112.253 84.0349 111.752 84.6512 111.752C85.2637 111.752 85.7649 112.253 85.7649 112.865V121.007C85.7649 121.619 85.2637 122.121 84.6512 122.121Z" fill="#0B0029"/>
<path d="M91.0589 122.121C90.4463 122.121 89.9452 121.619 89.9452 121.007V109.309C89.9452 108.697 90.4463 108.195 91.0589 108.195C91.6748 108.195 92.1726 108.697 92.1726 109.309V121.007C92.1726 121.619 91.6748 122.121 91.0589 122.121Z" fill="#0B0029"/>
<path d="M97.2434 122.121C96.6275 122.121 96.1297 121.619 96.1297 121.007V112.865C96.1297 112.253 96.6275 111.752 97.2434 111.752C97.856 111.752 98.3572 112.253 98.3572 112.865V121.007C98.3572 121.619 97.8564 122.121 97.2434 122.121Z" fill="#0B0029"/>
<path d="M103.652 122.121C103.035 122.121 102.538 121.619 102.538 121.007V109.309C102.538 108.697 103.035 108.195 103.652 108.195C104.264 108.195 104.765 108.697 104.765 109.309V121.007C104.765 121.619 104.264 122.121 103.652 122.121Z" fill="#0B0029"/>
<path d="M109.833 122.121C109.221 122.121 108.719 121.619 108.719 121.007V112.865C108.719 112.253 109.221 111.752 109.833 111.752C110.449 111.752 110.946 112.253 110.946 112.865V121.007C110.946 121.619 110.449 122.121 109.833 122.121Z" fill="#0B0029"/>
<path d="M116.244 122.121C115.632 122.121 115.13 121.619 115.13 121.007V109.309C115.13 108.697 115.632 108.195 116.244 108.195C116.856 108.195 117.358 108.697 117.358 109.309V121.007C117.358 121.619 116.857 122.121 116.244 122.121Z" fill="#0B0029"/>
</svg>
