<svg width="135" height="128" viewBox="0 0 135 128" fill="none" xmlns="http://www.w3.org/2000/svg">
<path fill-rule="evenodd" clip-rule="evenodd" d="M54 0.373836C23.4694 4.53295 0 29.5393 0 59.7662C0 92.9033 28.2061 119.766 63 119.766C97.7939 119.766 126 92.9033 126 59.7662C126 28.4264 100.771 2.69862 68.5998 0V59.7662H54V0.373836Z" fill="black"/>
<path d="M28.518 64.4902C28.518 62.7982 30.022 61.8582 32.466 61.8582C35.568 61.8582 37.448 63.5502 38.764 65.9942L50.796 59.5082C46.848 52.8342 40.08 49.4502 32.466 49.4502C22.69 49.4502 14.042 54.6202 14.042 64.8662C14.042 81.1282 37.166 78.4022 37.166 83.5722C37.166 85.4522 35.474 86.4862 32.09 86.4862C27.954 86.4862 25.322 84.5122 24.1 80.9402L11.88 87.8962C15.546 95.5102 22.69 99.0822 32.09 99.0822C42.242 99.0822 51.642 94.4762 51.642 83.6662C51.642 66.2762 28.518 69.8482 28.518 64.4902ZM82.0877 49.4502C75.7897 49.4502 71.1837 51.6122 68.0817 55.1842V31.9662H53.9817V97.7662H68.0817V93.3482C71.1837 96.9202 75.7897 99.0822 82.0877 99.0822C94.4017 99.0822 104.554 88.2722 104.554 74.2662C104.554 60.2602 94.4017 49.4502 82.0877 49.4502ZM79.2677 85.7342C72.7817 85.7342 68.0817 81.3162 68.0817 74.2662C68.0817 67.2162 72.7817 62.7982 79.2677 62.7982C85.7537 62.7982 90.4537 67.2162 90.4537 74.2662C90.4537 81.3162 85.7537 85.7342 79.2677 85.7342Z" fill="white"/>
<path d="M115.838 99.0822C120.726 99.0822 124.768 95.0402 124.768 90.1522C124.768 85.2642 120.726 81.2222 115.838 81.2222C110.95 81.2222 106.908 85.2642 106.908 90.1522C106.908 95.0402 110.95 99.0822 115.838 99.0822Z" fill="#FF3131"/>
</svg>
