<svg width="128" height="128" viewBox="0 0 128 128" fill="none" xmlns="http://www.w3.org/2000/svg">
<circle cx="64" cy="64" r="64" fill="black"/>
<path fill-rule="evenodd" clip-rule="evenodd" d="M65.4997 0.0172281V62H50.8999V1.36281C55.1305 0.469629 59.5159 0 64.0101 0C64.508 0 65.0046 0.00576359 65.4997 0.0172281Z" fill="white"/>
<path d="M24.306 59.308C24.306 57.544 25.874 56.564 28.422 56.564C31.656 56.564 33.616 58.328 34.988 60.876L47.532 54.114C43.416 47.156 36.36 43.628 28.422 43.628C18.23 43.628 9.214 49.018 9.214 59.7C9.214 76.654 33.322 73.812 33.322 79.202C33.322 81.162 31.558 82.24 28.03 82.24C23.718 82.24 20.974 80.182 19.7 76.458L6.96 83.71C10.782 91.648 18.23 95.372 28.03 95.372C38.614 95.372 48.414 90.57 48.414 79.3C48.414 61.17 24.306 64.894 24.306 59.308ZM80.1553 43.628C73.5893 43.628 68.7873 45.882 65.5533 49.606V25.4H50.8533V94H65.5533V89.394C68.7873 93.118 73.5893 95.372 80.1553 95.372C92.9933 95.372 103.577 84.102 103.577 69.5C103.577 54.898 92.9933 43.628 80.1553 43.628ZM77.2153 81.456C70.4533 81.456 65.5533 76.85 65.5533 69.5C65.5533 62.15 70.4533 57.544 77.2153 57.544C83.9773 57.544 88.8773 62.15 88.8773 69.5C88.8773 76.85 83.9773 81.456 77.2153 81.456ZM111.418 95.372C116.514 95.372 120.728 91.158 120.728 86.062C120.728 80.966 116.514 76.752 111.418 76.752C106.322 76.752 102.108 80.966 102.108 86.062C102.108 91.158 106.322 95.372 111.418 95.372Z" fill="white"/>
</svg>
