<svg width="548" height="130" viewBox="0 0 548 130" fill="none" xmlns="http://www.w3.org/2000/svg">
<path d="M0.858887 0.914062H10.7002V35.2524C13.5794 31.7124 17.0251 29.0456 21.0371 27.252C25.0964 25.4583 29.6276 24.5615 34.6309 24.5615C45.5814 24.5615 53.5583 27.7004 58.5615 33.978C63.5648 40.2085 66.0664 50.3566 66.0664 64.4224V104H56.2251V64.2808C56.2251 52.9998 54.5259 45.1646 51.1274 40.7749C47.729 36.3381 42.0413 34.1196 34.0645 34.1196C29.5332 34.1196 25.5448 35.04 22.0991 36.8809C18.7007 38.6745 16.0103 41.2705 14.0278 44.6689C12.8006 46.793 11.9274 49.2238 11.4082 51.9614C10.9362 54.6519 10.7002 59.3719 10.7002 66.1216V104H0.858887V0.914062ZM148.966 68.1748H78.6604C79.2741 76.6709 82.3421 83.5386 87.8645 88.7778C93.387 94.0171 100.278 96.6367 108.538 96.6367C114.391 96.6367 119.654 95.1263 124.327 92.1055C129 89.0374 132.611 84.7894 135.159 79.3613H146.488C142.9 87.999 137.85 94.6307 131.336 99.2563C124.87 103.882 117.365 106.195 108.822 106.195C97.4935 106.195 87.9117 102.159 80.0765 94.0879C72.2412 86.0166 68.3235 76.3169 68.3235 64.9888C68.3235 53.1414 72.1468 43.3473 79.7933 35.6064C87.4869 27.8656 97.3047 23.9951 109.246 23.9951C120.952 23.9951 130.487 28.0308 137.85 36.1021C145.26 44.1261 148.966 54.5811 148.966 67.4668V68.1748ZM137.921 59.7495C136.033 51.0174 132.563 44.4565 127.513 40.0669C122.463 35.63 115.878 33.4116 107.76 33.4116C100.207 33.4116 93.8118 35.7952 88.5726 40.5625C83.3333 45.2826 80.1237 51.6782 78.9436 59.7495H137.921ZM140.744 26.1191H152.214L176.286 89.3442L201.491 26.1191H213.103L171.047 129.205H160.356L170.764 103.858L140.744 26.1191ZM202.262 78.3701H220.67V78.7949C220.67 82.1934 221.449 84.8366 223.006 86.7246C224.611 88.5654 226.829 89.4858 229.662 89.4858C231.88 89.4858 233.697 88.8014 235.113 87.4326C236.576 86.0166 237.308 84.2466 237.308 82.1226C237.308 80.3761 236.742 78.7949 235.609 77.3789C234.476 75.9157 232.541 74.3109 229.803 72.5645C228.34 71.5732 226.334 70.2988 223.785 68.7412C219.112 65.8148 216.28 63.7852 215.289 62.6523C213.354 60.4811 211.938 58.2863 211.041 56.0679C210.191 53.8494 209.767 51.4658 209.767 48.917C209.767 41.9785 212.292 36.1729 217.342 31.5C222.393 26.7799 228.718 24.4199 236.317 24.4199C243.538 24.4199 249.391 26.5675 253.875 30.8628C258.407 35.158 260.672 40.7749 260.672 47.7134V48.917L242.264 48.8462C242.17 45.967 241.532 43.7957 240.352 42.3325C239.22 40.8221 237.591 40.0669 235.467 40.0669C233.532 40.0669 231.88 40.7041 230.511 41.9785C229.142 43.2057 228.458 44.6925 228.458 46.439C228.458 49.1766 231.502 52.4098 237.591 56.1387C238.582 56.7523 239.385 57.2479 239.998 57.6255C246.135 61.4487 250.406 65.036 252.813 68.3872C255.268 71.7384 256.495 75.5853 256.495 79.9277C256.495 87.3854 253.923 93.6159 248.778 98.6191C243.633 103.575 237.166 106.053 229.378 106.053C220.929 106.053 214.274 103.835 209.413 99.3979C204.551 94.9139 202.12 88.8014 202.12 81.0605C202.12 80.8245 202.144 80.3997 202.191 79.7861C202.238 79.1725 202.262 78.7005 202.262 78.3701ZM255.07 104L275.107 0.914062H293.232L287.143 31.6416C289.928 29.376 292.831 27.6768 295.852 26.5439C298.92 25.4111 302.153 24.8447 305.551 24.8447C314.661 24.8447 321.576 26.9924 326.296 31.2876C331.016 35.5828 333.376 41.8841 333.376 50.1914C333.376 51.749 333.14 54.1562 332.668 57.4131C332.243 60.6227 331.606 64.3516 330.757 68.5996L323.96 104H305.268L313.198 62.8647C313.528 61.2599 313.788 59.6551 313.977 58.0503C314.166 56.4455 314.26 54.8879 314.26 53.3774C314.26 49.271 313.222 46.1558 311.145 44.0317C309.068 41.8605 306.047 40.7749 302.082 40.7749C296.371 40.7749 291.793 42.7101 288.347 46.5806C284.901 50.451 282.376 56.5399 280.771 64.8472L273.195 104H255.07ZM330.465 104L345.545 26.1191H362.113L360.06 36.4561C363.364 32.1136 367.163 28.9276 371.458 26.8979C375.801 24.8211 380.899 23.7827 386.751 23.7827H387.318L383.849 42.0493C375.494 42.1909 369.358 43.8901 365.44 47.147C361.523 50.3566 358.714 56.2095 357.015 64.7056L349.298 104H330.465ZM435.737 104L436.728 98.6191C434.038 101.121 431.041 102.985 427.737 104.212C424.433 105.44 420.751 106.053 416.692 106.053C405.93 106.053 397.198 102.537 390.495 95.5039C383.793 88.4238 380.442 79.1725 380.442 67.75C380.442 62.9355 381.15 58.3335 382.566 53.9438C384.029 49.5542 386.224 45.3062 389.15 41.1997C393.068 35.7716 397.882 31.618 403.594 28.7388C409.352 25.8595 415.653 24.4199 422.497 24.4199C427.689 24.4199 432.48 25.4111 436.87 27.3936C441.26 29.376 445.13 32.3024 448.481 36.1729L450.393 26.1191H468.943L453.437 104H435.737ZM423.276 40.7749C416.527 40.7749 410.697 43.3945 405.788 48.6338C400.88 53.8258 398.425 60.1035 398.425 67.4668C398.425 73.9333 400.29 79.1489 404.018 83.1138C407.794 87.0786 412.75 89.061 418.887 89.061C425.731 89.061 431.513 86.465 436.233 81.2729C441 76.0337 443.384 69.5908 443.384 61.9443C443.384 55.7611 441.472 50.687 437.649 46.7222C433.873 42.7573 429.082 40.7749 423.276 40.7749ZM484.697 104L469.617 26.1191H488.025L498.008 81.2021L527.603 26.1191H547.852L504.946 104H484.697Z" fill="#1D1D1D"/>
</svg>
