<svg width="494" height="460" viewBox="0 0 494 460" fill="none" xmlns="http://www.w3.org/2000/svg">
<path d="M195.889 47.5928C224.687 20.7771 269.313 20.7771 298.11 47.5928L435.055 175.112C466.907 204.772 466.907 255.228 435.055 284.888L298.111 412.407C269.313 439.223 224.687 439.223 195.89 412.407L58.9452 284.888C27.0925 255.228 27.0925 204.772 58.9452 175.112L195.889 47.5928Z" fill="#1D1D1D"/>
<path d="M70.2031 194.75H76.7188V217.484C78.625 215.141 80.9062 213.375 83.5625 212.188C86.25 211 89.25 210.406 92.5625 210.406C99.8125 210.406 105.094 212.484 108.406 216.641C111.719 220.766 113.375 227.484 113.375 236.797V263H106.859V236.703C106.859 229.234 105.734 224.047 103.484 221.141C101.234 218.203 97.4688 216.734 92.1875 216.734C89.1875 216.734 86.5469 217.344 84.2656 218.562C82.0156 219.75 80.2344 221.469 78.9219 223.719C78.1094 225.125 77.5312 226.734 77.1875 228.547C76.875 230.328 76.7188 233.453 76.7188 237.922V263H70.2031V194.75ZM168.26 239.281H121.713C122.119 244.906 124.151 249.453 127.807 252.922C131.463 256.391 136.026 258.125 141.494 258.125C145.369 258.125 148.854 257.125 151.948 255.125C155.041 253.094 157.432 250.281 159.119 246.688H166.619C164.244 252.406 160.901 256.797 156.588 259.859C152.307 262.922 147.338 264.453 141.682 264.453C134.182 264.453 127.838 261.781 122.651 256.438C117.463 251.094 114.869 244.672 114.869 237.172C114.869 229.328 117.401 222.844 122.463 217.719C127.557 212.594 134.057 210.031 141.963 210.031C149.713 210.031 156.026 212.703 160.901 218.047C165.807 223.359 168.26 230.281 168.26 238.812V239.281ZM160.948 233.703C159.698 227.922 157.401 223.578 154.057 220.672C150.713 217.734 146.354 216.266 140.979 216.266C135.979 216.266 131.744 217.844 128.276 221C124.807 224.125 122.682 228.359 121.901 233.703H160.948ZM162.817 211.438H170.411L186.348 253.297L203.036 211.438H210.723L182.879 279.688H175.801L182.692 262.906L162.817 211.438ZM203.546 246.031H215.733V246.312C215.733 248.562 216.249 250.312 217.28 251.562C218.342 252.781 219.811 253.391 221.686 253.391C223.155 253.391 224.358 252.938 225.296 252.031C226.264 251.094 226.749 249.922 226.749 248.516C226.749 247.359 226.374 246.312 225.624 245.375C224.874 244.406 223.592 243.344 221.78 242.188C220.811 241.531 219.483 240.688 217.796 239.656C214.702 237.719 212.827 236.375 212.171 235.625C210.889 234.188 209.952 232.734 209.358 231.266C208.796 229.797 208.514 228.219 208.514 226.531C208.514 221.938 210.186 218.094 213.53 215C216.874 211.875 221.061 210.312 226.092 210.312C230.874 210.312 234.749 211.734 237.717 214.578C240.717 217.422 242.217 221.141 242.217 225.734V226.531L230.03 226.484C229.967 224.578 229.546 223.141 228.764 222.172C228.014 221.172 226.936 220.672 225.53 220.672C224.249 220.672 223.155 221.094 222.249 221.938C221.342 222.75 220.889 223.734 220.889 224.891C220.889 226.703 222.905 228.844 226.936 231.312C227.592 231.719 228.124 232.047 228.53 232.297C232.592 234.828 235.421 237.203 237.014 239.422C238.639 241.641 239.452 244.188 239.452 247.062C239.452 252 237.749 256.125 234.342 259.438C230.936 262.719 226.655 264.359 221.499 264.359C215.905 264.359 211.499 262.891 208.28 259.953C205.061 256.984 203.452 252.938 203.452 247.812C203.452 247.656 203.467 247.375 203.499 246.969C203.53 246.562 203.546 246.25 203.546 246.031ZM238.509 263L251.774 194.75H263.774L259.743 215.094C261.587 213.594 263.509 212.469 265.509 211.719C267.54 210.969 269.681 210.594 271.931 210.594C277.962 210.594 282.54 212.016 285.665 214.859C288.79 217.703 290.353 221.875 290.353 227.375C290.353 228.406 290.196 230 289.884 232.156C289.603 234.281 289.181 236.75 288.618 239.562L284.118 263H271.743L276.993 235.766C277.212 234.703 277.384 233.641 277.509 232.578C277.634 231.516 277.696 230.484 277.696 229.484C277.696 226.766 277.009 224.703 275.634 223.297C274.259 221.859 272.259 221.141 269.634 221.141C265.853 221.141 262.821 222.422 260.54 224.984C258.259 227.547 256.587 231.578 255.524 237.078L250.509 263H238.509ZM288.425 263L298.409 211.438H309.378L308.019 218.281C310.206 215.406 312.722 213.297 315.566 211.953C318.441 210.578 321.816 209.891 325.691 209.891H326.066L323.769 221.984C318.238 222.078 314.175 223.203 311.581 225.359C308.988 227.484 307.128 231.359 306.003 236.984L300.894 263H288.425ZM358.122 263L358.779 259.438C356.997 261.094 355.013 262.328 352.826 263.141C350.638 263.953 348.201 264.359 345.513 264.359C338.388 264.359 332.607 262.031 328.169 257.375C323.732 252.688 321.513 246.562 321.513 239C321.513 235.812 321.982 232.766 322.919 229.859C323.888 226.953 325.341 224.141 327.279 221.422C329.872 217.828 333.06 215.078 336.841 213.172C340.654 211.266 344.826 210.312 349.357 210.312C352.794 210.312 355.966 210.969 358.872 212.281C361.779 213.594 364.341 215.531 366.56 218.094L367.826 211.438H380.107L369.841 263H358.122ZM349.872 221.141C345.404 221.141 341.544 222.875 338.294 226.344C335.044 229.781 333.419 233.938 333.419 238.812C333.419 243.094 334.654 246.547 337.122 249.172C339.622 251.797 342.904 253.109 346.966 253.109C351.497 253.109 355.326 251.391 358.451 247.953C361.607 244.484 363.185 240.219 363.185 235.156C363.185 231.062 361.919 227.703 359.388 225.078C356.888 222.453 353.716 221.141 349.872 221.141ZM390.538 263L380.553 211.438H392.741L399.35 247.906L418.944 211.438H432.35L403.944 263H390.538Z" fill="white"/>
</svg>
