<svg width="591" height="151" viewBox="0 0 591 151" fill="none" xmlns="http://www.w3.org/2000/svg">
<g clip-path="url(#clip0)">
<rect width="591" height="151" fill="white"/>
<path d="M22.8589 13.9141H32.7002V48.2524C35.5794 44.7124 39.0251 42.0456 43.0371 40.252C47.0964 38.4583 51.6276 37.5615 56.6309 37.5615C67.5814 37.5615 75.5583 40.7004 80.5615 46.978C85.5648 53.2085 88.0664 63.3566 88.0664 77.4224V117H78.2251V77.2808C78.2251 65.9998 76.5259 58.1646 73.1274 53.7749C69.729 49.3381 64.0413 47.1196 56.0645 47.1196C51.5332 47.1196 47.5448 48.04 44.0991 49.8809C40.7007 51.6745 38.0103 54.2705 36.0278 57.6689C34.8006 59.793 33.9274 62.2238 33.4082 64.9614C32.9362 67.6519 32.7002 72.3719 32.7002 79.1216V117H22.8589V13.9141ZM170.966 81.1748H100.66C101.274 89.6709 104.342 96.5386 109.865 101.778C115.387 107.017 122.278 109.637 130.538 109.637C136.391 109.637 141.654 108.126 146.327 105.105C151 102.037 154.611 97.7894 157.159 92.3613H168.488C164.9 100.999 159.85 107.631 153.336 112.256C146.87 116.882 139.365 119.195 130.822 119.195C119.493 119.195 109.912 115.159 102.076 107.088C94.2412 99.0166 90.3235 89.3169 90.3235 77.9888C90.3235 66.1414 94.1468 56.3473 101.793 48.6064C109.487 40.8656 119.305 36.9951 131.246 36.9951C142.952 36.9951 152.487 41.0308 159.85 49.1021C167.26 57.1261 170.966 67.5811 170.966 80.4668V81.1748ZM159.921 72.7495C158.033 64.0174 154.563 57.4565 149.513 53.0669C144.463 48.63 137.878 46.4116 129.76 46.4116C122.207 46.4116 115.812 48.7952 110.573 53.5625C105.333 58.2826 102.124 64.6782 100.944 72.7495H159.921ZM162.744 39.1191H174.214L198.286 102.344L223.491 39.1191H235.103L193.047 142.205H182.356L192.764 116.858L162.744 39.1191ZM224.262 91.3701H242.67V91.7949C242.67 95.1934 243.449 97.8366 245.006 99.7246C246.611 101.565 248.829 102.486 251.662 102.486C253.88 102.486 255.697 101.801 257.113 100.433C258.576 99.0166 259.308 97.2466 259.308 95.1226C259.308 93.3761 258.742 91.7949 257.609 90.3789C256.476 88.9157 254.541 87.3109 251.803 85.5645C250.34 84.5732 248.334 83.2988 245.785 81.7412C241.112 78.8148 238.28 76.7852 237.289 75.6523C235.354 73.4811 233.938 71.2863 233.041 69.0679C232.191 66.8494 231.767 64.4658 231.767 61.917C231.767 54.9785 234.292 49.1729 239.342 44.5C244.393 39.7799 250.718 37.4199 258.317 37.4199C265.538 37.4199 271.391 39.5675 275.875 43.8628C280.407 48.158 282.672 53.7749 282.672 60.7134V61.917L264.264 61.8462C264.17 58.967 263.532 56.7957 262.352 55.3325C261.22 53.8221 259.591 53.0669 257.467 53.0669C255.532 53.0669 253.88 53.7041 252.511 54.9785C251.142 56.2057 250.458 57.6925 250.458 59.439C250.458 62.1766 253.502 65.4098 259.591 69.1387C260.582 69.7523 261.385 70.2479 261.998 70.6255C268.135 74.4487 272.406 78.036 274.813 81.3872C277.268 84.7384 278.495 88.5853 278.495 92.9277C278.495 100.385 275.923 106.616 270.778 111.619C265.633 116.575 259.166 119.053 251.378 119.053C242.929 119.053 236.274 116.835 231.413 112.398C226.551 107.914 224.12 101.801 224.12 94.0605C224.12 93.8245 224.144 93.3997 224.191 92.7861C224.238 92.1725 224.262 91.7005 224.262 91.3701ZM277.07 117L297.107 13.9141H315.232L309.143 44.6416C311.928 42.376 314.831 40.6768 317.852 39.5439C320.92 38.4111 324.153 37.8447 327.551 37.8447C336.661 37.8447 343.576 39.9924 348.296 44.2876C353.016 48.5828 355.376 54.8841 355.376 63.1914C355.376 64.749 355.14 67.1562 354.668 70.4131C354.243 73.6227 353.606 77.3516 352.757 81.5996L345.96 117H327.268L335.198 75.8647C335.528 74.2599 335.788 72.6551 335.977 71.0503C336.166 69.4455 336.26 67.8879 336.26 66.3774C336.26 62.271 335.222 59.1558 333.145 57.0317C331.068 54.8605 328.047 53.7749 324.082 53.7749C318.371 53.7749 313.793 55.7101 310.347 59.5806C306.901 63.451 304.376 69.5399 302.771 77.8472L295.195 117H277.07ZM352.465 117L367.545 39.1191H384.113L382.06 49.4561C385.364 45.1136 389.163 41.9276 393.458 39.8979C397.801 37.8211 402.899 36.7827 408.751 36.7827H409.318L405.849 55.0493C397.494 55.1909 391.358 56.8901 387.44 60.147C383.523 63.3566 380.714 69.2095 379.015 77.7056L371.298 117H352.465ZM457.737 117L458.728 111.619C456.038 114.121 453.041 115.985 449.737 117.212C446.433 118.44 442.751 119.053 438.692 119.053C427.93 119.053 419.198 115.537 412.495 108.504C405.793 101.424 402.442 92.1725 402.442 80.75C402.442 75.9355 403.15 71.3335 404.566 66.9438C406.029 62.5542 408.224 58.3062 411.15 54.1997C415.068 48.7716 419.882 44.618 425.594 41.7388C431.352 38.8595 437.653 37.4199 444.497 37.4199C449.689 37.4199 454.48 38.4111 458.87 40.3936C463.26 42.376 467.13 45.3024 470.481 49.1729L472.393 39.1191H490.943L475.437 117H457.737ZM445.276 53.7749C438.527 53.7749 432.697 56.3945 427.788 61.6338C422.88 66.8258 420.425 73.1035 420.425 80.4668C420.425 86.9333 422.29 92.1489 426.018 96.1138C429.794 100.079 434.75 102.061 440.887 102.061C447.731 102.061 453.513 99.465 458.233 94.2729C463 89.0337 465.384 82.5908 465.384 74.9443C465.384 68.7611 463.472 63.687 459.649 59.7222C455.873 55.7573 451.082 53.7749 445.276 53.7749ZM506.697 117L491.617 39.1191H510.025L520.008 94.2021L549.603 39.1191H569.852L526.946 117H506.697Z" fill="#1D1D1D"/>
</g>
<defs>
<clipPath id="clip0">
<rect width="591" height="151" fill="white"/>
</clipPath>
</defs>
</svg>
