<svg xmlns="http://www.w3.org/2000/svg" viewBox="0 0 499.95 594.03"><g id="Layer_2" data-name="Layer 2"><g id="Logos"><g id="FinalDesign"><path d="M413.66,530.56S374.42,591.26,272.78,594q-29.19-.81-60.79-12.88-40-16.32-61-42.77t-28.63-55q-7.64-28.51-4.72-55.22T128.33,385q7.78-16.49,18-18.22t17.16,18.7q-7.91,44.28-.28,77t25.11,54.25a105.7,105.7,0,0,0,42.78,31.8,143.23,143.23,0,0,0,52,10.74,137,137,0,0,0,52.08-9.3,122.41,122.41,0,0,0,43.7-28.32q18.35-18.56,26.9-46.67t1.64-64s-9.37-22.93-21.18-34c0,0,25.92-18.31,19-58.14C405.26,318.83,478.85,440.67,413.66,530.56ZM348,56.63c17.4-12.1,35.76-21.56,53.21-31.8,35-20.56,97.9-31,98.75-20.94.49,5.82-15.56,15.29-55.13,39-11.1,6.66-76.62,39.86-112.22,85.74,0,0-40.87,46.29-3.21,70.42,32.68,20.94,65.36,46.47,79,101.72,0,0-21.31-63.42-114.7-83.58C293.69,217.21,129.62,208.44,348,56.63Z"/><path d="M199.62,155.63l60.73-36.22S181.84,186.77,237.69,204l-90,18c64.81-2.57,113.42.85,113.42.85,12.91,1.42,82.09,8.67,121.92,61.52,11.57,15.35,18.61,38.64,11.15,62.81C373.86,413,185,467.67,0,289l137.28,56.28c146.87,63.48,204.77-11.4,204.77-11.4,36.37-86.71-189.27-69.95-210.74-69.27s-84.92-1.11-91.87-6C39.44,258.6,87.32,213.06,199.62,155.63Z"/></g></g></g></svg>